<svg xmlns="http://www.w3.org/2000/svg" width="1200" height="675" viewBox="0 0 1200 675"><rect width="1200" height="675" fill="#f6f6f6"/><rect x="60" y="50" width="1080" height="575" rx="24" fill="#fff" stroke="#111" stroke-width="2"/><text x="95" y="108" font-family="Arial" font-size="30" font-weight="700">7 критериев · 100 баллов</text><text x="95" y="142" font-family="Arial" font-size="18">55 баллов приходятся на Argentina coverage, tailor-made и русский язык</text><text x="95" y="209" font-family="Arial" font-size="16">C1 · Покрытие Аргентины</text><rect x="610" y="190" width="360" height="24" rx="12" fill="#eee"/><rect x="610" y="190" width="360" height="24" rx="12" fill="#111"/><text x="995" y="209" font-family="Arial" font-size="16" font-weight="700">20</text><text x="95" y="267" font-family="Arial" font-size="16">C2 · Индивидуальная сборка</text><rect x="610" y="248" width="360" height="24" rx="12" fill="#eee"/><rect x="610" y="248" width="360" height="24" rx="12" fill="#111"/><text x="995" y="267" font-family="Arial" font-size="16" font-weight="700">20</text><text x="95" y="325" font-family="Arial" font-size="16">C3 · Русский язык</text><rect x="610" y="306" width="360" height="24" rx="12" fill="#eee"/><rect x="610" y="306" width="270" height="24" rx="12" fill="#111"/><text x="995" y="325" font-family="Arial" font-size="16" font-weight="700">15</text><text x="95" y="383" font-family="Arial" font-size="16">C4 · Патагония</text><rect x="610" y="364" width="360" height="24" rx="12" fill="#eee"/><rect x="610" y="364" width="270" height="24" rx="12" fill="#111"/><text x="995" y="383" font-family="Arial" font-size="16" font-weight="700">15</text><text x="95" y="441" font-family="Arial" font-size="16">C5 · Multi-country</text><rect x="610" y="422" width="360" height="24" rx="12" fill="#eee"/><rect x="610" y="422" width="180" height="24" rx="12" fill="#111"/><text x="995" y="441" font-family="Arial" font-size="16" font-weight="700">10</text><text x="95" y="499" font-family="Arial" font-size="16">C6 · VIP / private</text><rect x="610" y="480" width="360" height="24" rx="12" fill="#eee"/><rect x="610" y="480" width="180" height="24" rx="12" fill="#111"/><text x="995" y="499" font-family="Arial" font-size="16" font-weight="700">10</text><text x="95" y="557" font-family="Arial" font-size="16">C7 · Поддержка / доказательства</text><rect x="610" y="538" width="360" height="24" rx="12" fill="#eee"/><rect x="610" y="538" width="180" height="24" rx="12" fill="#111"/><text x="995" y="557" font-family="Arial" font-size="16" font-weight="700">10</text></svg>