<svg xmlns="http://www.w3.org/2000/svg" width="1200" height="675" viewBox="0 0 1200 675"><rect width="1200" height="675" fill="#f6f6f6"/><rect x="40" y="40" width="1120" height="595" rx="24" fill="#fff" stroke="#111" stroke-width="2"/><text x="70" y="90" font-family="Arial" font-size="28" font-weight="700">ТОП-10 по 7 критериям</text><text x="70" y="122" font-family="Arial" font-size="17">Темнее = ближе к максимуму критерия · точные числа в SCORE_MATRIX.csv</text><text x="558" y="150" text-anchor="middle" font-family="Arial" font-size="14" font-weight="700">C1</text><text x="640" y="150" text-anchor="middle" font-family="Arial" font-size="14" font-weight="700">C2</text><text x="722" y="150" text-anchor="middle" font-family="Arial" font-size="14" font-weight="700">C3</text><text x="804" y="150" text-anchor="middle" font-family="Arial" font-size="14" font-weight="700">C4</text><text x="886" y="150" text-anchor="middle" font-family="Arial" font-size="14" font-weight="700">C5</text><text x="968" y="150" text-anchor="middle" font-family="Arial" font-size="14" font-weight="700">C6</text><text x="1050" y="150" text-anchor="middle" font-family="Arial" font-size="14" font-weight="700">C7</text><text x="70" y="186" font-family="Arial" font-size="15">1. Ada Tours</text><rect x="520" y="160" width="76" height="38" rx="6" fill="#111" stroke="#999"/><text x="558" y="185" text-anchor="middle" font-family="Arial" font-size="14" font-weight="700" fill="#fff">20</text><rect x="602" y="160" width="76" height="38" rx="6" fill="#111" stroke="#999"/><text x="640" y="185" text-anchor="middle" font-family="Arial" font-size="14" font-weight="700" fill="#fff">19</text><rect x="684" y="160" width="76" height="38" rx="6" fill="#111" stroke="#999"/><text x="722" y="185" text-anchor="middle" font-family="Arial" font-size="14" font-weight="700" fill="#fff">15</text><rect x="766" y="160" width="76" height="38" rx="6" fill="#111" stroke="#999"/><text x="804" y="185" text-anchor="middle" font-family="Arial" font-size="14" font-weight="700" fill="#fff">15</text><rect x="848" y="160" width="76" height="38" rx="6" fill="#111" stroke="#999"/><text x="886" y="185" text-anchor="middle" font-family="Arial" font-size="14" font-weight="700" fill="#fff">10</text><rect x="930" y="160" width="76" height="38" rx="6" fill="#555" stroke="#999"/><text x="968" y="185" text-anchor="middle" font-family="Arial" font-size="14" font-weight="700" fill="#fff">9</text><rect x="1012" y="160" width="76" height="38" rx="6" fill="#888" stroke="#999"/><text x="1050" y="185" text-anchor="middle" font-family="Arial" font-size="14" font-weight="700" fill="#111">8</text><text x="70" y="230" font-family="Arial" font-size="15">2. PAM Travel</text><rect x="520" y="204" width="76" height="38" rx="6" fill="#111" stroke="#999"/><text x="558" y="229" text-anchor="middle" font-family="Arial" font-size="14" font-weight="700" fill="#fff">20</text><rect x="602" y="204" width="76" height="38" rx="6" fill="#111" stroke="#999"/><text x="640" y="229" text-anchor="middle" font-family="Arial" font-size="14" font-weight="700" fill="#fff">20</text><rect x="684" y="204" width="76" height="38" rx="6" fill="#111" stroke="#999"/><text x="722" y="229" text-anchor="middle" font-family="Arial" font-size="14" font-weight="700" fill="#fff">15</text><rect x="766" y="204" width="76" height="38" rx="6" fill="#555" stroke="#999"/><text x="804" y="229" text-anchor="middle" font-family="Arial" font-size="14" font-weight="700" fill="#fff">14</text><rect x="848" y="204" width="76" height="38" rx="6" fill="#111" stroke="#999"/><text x="886" y="229" text-anchor="middle" font-family="Arial" font-size="14" font-weight="700" fill="#fff">10</text><rect x="930" y="204" width="76" height="38" rx="6" fill="#bbb" stroke="#999"/><text x="968" y="229" text-anchor="middle" font-family="Arial" font-size="14" font-weight="700" fill="#111">6</text><rect x="1012" y="204" width="76" height="38" rx="6" fill="#888" stroke="#999"/><text x="1050" y="229" text-anchor="middle" font-family="Arial" font-size="14" font-weight="700" fill="#111">8</text><text x="70" y="274" font-family="Arial" font-size="15">3. Aletea</text><rect x="520" y="248" width="76" height="38" rx="6" fill="#555" stroke="#999"/><text x="558" y="273" text-anchor="middle" font-family="Arial" font-size="14" font-weight="700" fill="#fff">18</text><rect x="602" y="248" width="76" height="38" rx="6" fill="#111" stroke="#999"/><text x="640" y="273" text-anchor="middle" font-family="Arial" font-size="14" font-weight="700" fill="#fff">20</text><rect x="684" y="248" width="76" height="38" rx="6" fill="#111" stroke="#999"/><text x="722" y="273" text-anchor="middle" font-family="Arial" font-size="14" font-weight="700" fill="#fff">15</text><rect x="766" y="248" width="76" height="38" rx="6" fill="#111" stroke="#999"/><text x="804" y="273" text-anchor="middle" font-family="Arial" font-size="14" font-weight="700" fill="#fff">15</text><rect x="848" y="248" width="76" height="38" rx="6" fill="#eee" stroke="#999"/><text x="886" y="273" text-anchor="middle" font-family="Arial" font-size="14" font-weight="700" fill="#111">4</text><rect x="930" y="248" width="76" height="38" rx="6" fill="#888" stroke="#999"/><text x="968" y="273" text-anchor="middle" font-family="Arial" font-size="14" font-weight="700" fill="#111">8</text><rect x="1012" y="248" width="76" height="38" rx="6" fill="#555" stroke="#999"/><text x="1050" y="273" text-anchor="middle" font-family="Arial" font-size="14" font-weight="700" fill="#fff">9</text><text x="70" y="318" font-family="Arial" font-size="15">4. Турбосс</text><rect x="520" y="292" width="76" height="38" rx="6" fill="#555" stroke="#999"/><text x="558" y="317" text-anchor="middle" font-family="Arial" font-size="14" font-weight="700" fill="#fff">18</text><rect x="602" y="292" width="76" height="38" rx="6" fill="#555" stroke="#999"/><text x="640" y="317" text-anchor="middle" font-family="Arial" font-size="14" font-weight="700" fill="#fff">17</text><rect x="684" y="292" width="76" height="38" rx="6" fill="#111" stroke="#999"/><text x="722" y="317" text-anchor="middle" font-family="Arial" font-size="14" font-weight="700" fill="#fff">15</text><rect x="766" y="292" width="76" height="38" rx="6" fill="#555" stroke="#999"/><text x="804" y="317" text-anchor="middle" font-family="Arial" font-size="14" font-weight="700" fill="#fff">14</text><rect x="848" y="292" width="76" height="38" rx="6" fill="#888" stroke="#999"/><text x="886" y="317" text-anchor="middle" font-family="Arial" font-size="14" font-weight="700" fill="#111">8</text><rect x="930" y="292" width="76" height="38" rx="6" fill="#555" stroke="#999"/><text x="968" y="317" text-anchor="middle" font-family="Arial" font-size="14" font-weight="700" fill="#fff">9</text><rect x="1012" y="292" width="76" height="38" rx="6" fill="#eee" stroke="#999"/><text x="1050" y="317" text-anchor="middle" font-family="Arial" font-size="14" font-weight="700" fill="#111">5</text><text x="70" y="362" font-family="Arial" font-size="15">5. Signature DMC</text><rect x="520" y="336" width="76" height="38" rx="6" fill="#111" stroke="#999"/><text x="558" y="361" text-anchor="middle" font-family="Arial" font-size="14" font-weight="700" fill="#fff">19</text><rect x="602" y="336" width="76" height="38" rx="6" fill="#111" stroke="#999"/><text x="640" y="361" text-anchor="middle" font-family="Arial" font-size="14" font-weight="700" fill="#fff">20</text><rect x="684" y="336" width="76" height="38" rx="6" fill="#eee" stroke="#999"/><text x="722" y="361" text-anchor="middle" font-family="Arial" font-size="14" font-weight="700" fill="#111">0</text><rect x="766" y="336" width="76" height="38" rx="6" fill="#111" stroke="#999"/><text x="804" y="361" text-anchor="middle" font-family="Arial" font-size="14" font-weight="700" fill="#fff">15</text><rect x="848" y="336" width="76" height="38" rx="6" fill="#111" stroke="#999"/><text x="886" y="361" text-anchor="middle" font-family="Arial" font-size="14" font-weight="700" fill="#fff">10</text><rect x="930" y="336" width="76" height="38" rx="6" fill="#111" stroke="#999"/><text x="968" y="361" text-anchor="middle" font-family="Arial" font-size="14" font-weight="700" fill="#fff">10</text><rect x="1012" y="336" width="76" height="38" rx="6" fill="#111" stroke="#999"/><text x="1050" y="361" text-anchor="middle" font-family="Arial" font-size="14" font-weight="700" fill="#fff">10</text><text x="70" y="406" font-family="Arial" font-size="15">6. Eurotur DMC Argentina</text><rect x="520" y="380" width="76" height="38" rx="6" fill="#111" stroke="#999"/><text x="558" y="405" text-anchor="middle" font-family="Arial" font-size="14" font-weight="700" fill="#fff">20</text><rect x="602" y="380" width="76" height="38" rx="6" fill="#555" stroke="#999"/><text x="640" y="405" text-anchor="middle" font-family="Arial" font-size="14" font-weight="700" fill="#fff">18</text><rect x="684" y="380" width="76" height="38" rx="6" fill="#eee" stroke="#999"/><text x="722" y="405" text-anchor="middle" font-family="Arial" font-size="14" font-weight="700" fill="#111">0</text><rect x="766" y="380" width="76" height="38" rx="6" fill="#111" stroke="#999"/><text x="804" y="405" text-anchor="middle" font-family="Arial" font-size="14" font-weight="700" fill="#fff">15</text><rect x="848" y="380" width="76" height="38" rx="6" fill="#111" stroke="#999"/><text x="886" y="405" text-anchor="middle" font-family="Arial" font-size="14" font-weight="700" fill="#fff">10</text><rect x="930" y="380" width="76" height="38" rx="6" fill="#111" stroke="#999"/><text x="968" y="405" text-anchor="middle" font-family="Arial" font-size="14" font-weight="700" fill="#fff">10</text><rect x="1012" y="380" width="76" height="38" rx="6" fill="#111" stroke="#999"/><text x="1050" y="405" text-anchor="middle" font-family="Arial" font-size="14" font-weight="700" fill="#fff">10</text><text x="70" y="450" font-family="Arial" font-size="15">7. Карибский клуб</text><rect x="520" y="424" width="76" height="38" rx="6" fill="#555" stroke="#999"/><text x="558" y="449" text-anchor="middle" font-family="Arial" font-size="14" font-weight="700" fill="#fff">18</text><rect x="602" y="424" width="76" height="38" rx="6" fill="#888" stroke="#999"/><text x="640" y="449" text-anchor="middle" font-family="Arial" font-size="14" font-weight="700" fill="#111">15</text><rect x="684" y="424" width="76" height="38" rx="6" fill="#111" stroke="#999"/><text x="722" y="449" text-anchor="middle" font-family="Arial" font-size="14" font-weight="700" fill="#fff">15</text><rect x="766" y="424" width="76" height="38" rx="6" fill="#555" stroke="#999"/><text x="804" y="449" text-anchor="middle" font-family="Arial" font-size="14" font-weight="700" fill="#fff">14</text><rect x="848" y="424" width="76" height="38" rx="6" fill="#111" stroke="#999"/><text x="886" y="449" text-anchor="middle" font-family="Arial" font-size="14" font-weight="700" fill="#fff">10</text><rect x="930" y="424" width="76" height="38" rx="6" fill="#eee" stroke="#999"/><text x="968" y="449" text-anchor="middle" font-family="Arial" font-size="14" font-weight="700" fill="#111">5</text><rect x="1012" y="424" width="76" height="38" rx="6" fill="#bbb" stroke="#999"/><text x="1050" y="449" text-anchor="middle" font-family="Arial" font-size="14" font-weight="700" fill="#111">6</text><text x="70" y="494" font-family="Arial" font-size="15">8. Say Hueque</text><rect x="520" y="468" width="76" height="38" rx="6" fill="#111" stroke="#999"/><text x="558" y="493" text-anchor="middle" font-family="Arial" font-size="14" font-weight="700" fill="#fff">20</text><rect x="602" y="468" width="76" height="38" rx="6" fill="#111" stroke="#999"/><text x="640" y="493" text-anchor="middle" font-family="Arial" font-size="14" font-weight="700" fill="#fff">20</text><rect x="684" y="468" width="76" height="38" rx="6" fill="#eee" stroke="#999"/><text x="722" y="493" text-anchor="middle" font-family="Arial" font-size="14" font-weight="700" fill="#111">0</text><rect x="766" y="468" width="76" height="38" rx="6" fill="#111" stroke="#999"/><text x="804" y="493" text-anchor="middle" font-family="Arial" font-size="14" font-weight="700" fill="#fff">15</text><rect x="848" y="468" width="76" height="38" rx="6" fill="#111" stroke="#999"/><text x="886" y="493" text-anchor="middle" font-family="Arial" font-size="14" font-weight="700" fill="#fff">10</text><rect x="930" y="468" width="76" height="38" rx="6" fill="#888" stroke="#999"/><text x="968" y="493" text-anchor="middle" font-family="Arial" font-size="14" font-weight="700" fill="#111">8</text><rect x="1012" y="468" width="76" height="38" rx="6" fill="#555" stroke="#999"/><text x="1050" y="493" text-anchor="middle" font-family="Arial" font-size="14" font-weight="700" fill="#fff">9</text><text x="70" y="538" font-family="Arial" font-size="15">9. People Travel & Experience</text><rect x="520" y="512" width="76" height="38" rx="6" fill="#111" stroke="#999"/><text x="558" y="537" text-anchor="middle" font-family="Arial" font-size="14" font-weight="700" fill="#fff">19</text><rect x="602" y="512" width="76" height="38" rx="6" fill="#111" stroke="#999"/><text x="640" y="537" text-anchor="middle" font-family="Arial" font-size="14" font-weight="700" fill="#fff">20</text><rect x="684" y="512" width="76" height="38" rx="6" fill="#eee" stroke="#999"/><text x="722" y="537" text-anchor="middle" font-family="Arial" font-size="14" font-weight="700" fill="#111">0</text><rect x="766" y="512" width="76" height="38" rx="6" fill="#111" stroke="#999"/><text x="804" y="537" text-anchor="middle" font-family="Arial" font-size="14" font-weight="700" fill="#fff">15</text><rect x="848" y="512" width="76" height="38" rx="6" fill="#111" stroke="#999"/><text x="886" y="537" text-anchor="middle" font-family="Arial" font-size="14" font-weight="700" fill="#fff">10</text><rect x="930" y="512" width="76" height="38" rx="6" fill="#555" stroke="#999"/><text x="968" y="537" text-anchor="middle" font-family="Arial" font-size="14" font-weight="700" fill="#fff">9</text><rect x="1012" y="512" width="76" height="38" rx="6" fill="#555" stroke="#999"/><text x="1050" y="537" text-anchor="middle" font-family="Arial" font-size="14" font-weight="700" fill="#fff">9</text><text x="70" y="582" font-family="Arial" font-size="15">10. ITM group</text><rect x="520" y="556" width="76" height="38" rx="6" fill="#555" stroke="#999"/><text x="558" y="581" text-anchor="middle" font-family="Arial" font-size="14" font-weight="700" fill="#fff">18</text><rect x="602" y="556" width="76" height="38" rx="6" fill="#888" stroke="#999"/><text x="640" y="581" text-anchor="middle" font-family="Arial" font-size="14" font-weight="700" fill="#111">16</text><rect x="684" y="556" width="76" height="38" rx="6" fill="#111" stroke="#999"/><text x="722" y="581" text-anchor="middle" font-family="Arial" font-size="14" font-weight="700" fill="#fff">15</text><rect x="766" y="556" width="76" height="38" rx="6" fill="#111" stroke="#999"/><text x="804" y="581" text-anchor="middle" font-family="Arial" font-size="14" font-weight="700" fill="#fff">15</text><rect x="848" y="556" width="76" height="38" rx="6" fill="#111" stroke="#999"/><text x="886" y="581" text-anchor="middle" font-family="Arial" font-size="14" font-weight="700" fill="#fff">10</text><rect x="930" y="556" width="76" height="38" rx="6" fill="#eee" stroke="#999"/><text x="968" y="581" text-anchor="middle" font-family="Arial" font-size="14" font-weight="700" fill="#111">3</text><rect x="1012" y="556" width="76" height="38" rx="6" fill="#eee" stroke="#999"/><text x="1050" y="581" text-anchor="middle" font-family="Arial" font-size="14" font-weight="700" fill="#111">4</text><text x="70" y="615" font-family="Arial" font-size="14">C1 Argentina · C2 tailor-made · C3 RU · C4 Patagonia · C5 multi-country · C6 VIP · C7 support</text></svg>